<svg width="96" height="96" viewBox="0 0 96 96" fill="none" xmlns="http://www.w3.org/2000/svg">
  <defs>
    <radialGradient id="bgTriz" cx="0" cy="0" r="1" gradientUnits="userSpaceOnUse" gradientTransform="translate(32 22) rotate(50.6) scale(66.9)">
      <stop offset="0" stop-color="#DCEBFA"/>
      <stop offset="0.58" stop-color="#BED8F0"/>
      <stop offset="1" stop-color="#9FC3E0"/>
    </radialGradient>
    <linearGradient id="ringTriz" x1="15" y1="10" x2="80" y2="86" gradientUnits="userSpaceOnUse">
      <stop stop-color="#2E3542"/>
      <stop offset="1" stop-color="#0F1115"/>
    </linearGradient>
    <linearGradient id="flameShade" x1="24" y1="15" x2="77" y2="83" gradientUnits="userSpaceOnUse">
      <stop stop-color="#24262B"/>
      <stop offset="1" stop-color="#0F1013"/>
    </linearGradient>
    <filter id="shadowTriz" x="2" y="2" width="92" height="94" filterUnits="userSpaceOnUse" color-interpolation-filters="sRGB">
      <feOffset dy="2"/>
      <feGaussianBlur stdDeviation="2.5"/>
      <feColorMatrix type="matrix" values="0 0 0 0 0.07 0 0 0 0 0.09 0 0 0 0 0.12 0 0 0 0.18 0"/>
      <feBlend in2="SourceGraphic" result="shape"/>
    </filter>
  </defs>

  <g filter="url(#shadowTriz)">
    <circle cx="48" cy="48" r="45.5" fill="url(#ringTriz)"/>
    <circle cx="48" cy="48" r="42.3" fill="url(#bgTriz)"/>
    <circle cx="48" cy="48" r="41.2" stroke="rgba(255,255,255,0.55)" stroke-width="1.6"/>
    <ellipse cx="34" cy="22" rx="24" ry="10" fill="rgba(255,255,255,0.28)"/>
  </g>

  <path d="M53.7 18C60.1 23.6 63 32.2 61.1 39.8C65.9 37.7 69.4 34.2 72.1 27.9C77.7 35.7 78.1 44.9 74.8 51.7C78 50.7 80.6 48.5 82.6 44.8C86.7 51.8 86.8 59.4 82.9 66.5C80 71.7 77.7 76.4 77.4 81H24.9C24.3 76.3 21.4 71.7 18.2 66.6C12.8 58 13.8 46.4 20.9 39.1C24.4 35.4 28.5 33.1 32.2 31.1C36.2 28.9 39.8 27 42.7 24.1C47.6 19.3 50.3 13.8 49 8.6C50.8 10.9 52.3 14.3 53.7 18Z" fill="url(#flameShade)"/>
  <path d="M48.7 17.8C52.4 22 54 27.3 52.8 32.2C51.4 37.8 47 40.2 41.6 43.4C36.8 46.2 31 50 28.8 57.2C27.3 62 28.3 67.7 31.3 72.9H24.9C24.3 76.3 21.4 71.7 18.2 66.6C12.8 58 13.8 46.4 20.9 39.1C24.4 35.4 28.5 33.1 32.2 31.1C36.2 28.9 39.8 27 42.7 24.1C45.4 21.5 47.2 18.9 48.7 17.8Z" fill="white" opacity="0.08"/>
  <path d="M67.7 33.4C69.6 37 69.8 41.3 68.7 45.1C67.7 48.6 65.8 51.1 63.6 53.5C66.5 52.4 69.1 50.7 71.5 47.8C72.6 49.9 73.1 52.4 73 55C72.9 60.2 70.7 64.8 67.2 70.1" stroke="white" stroke-width="2.4" stroke-linecap="round" opacity="0.16"/>
</svg>
